# xmcd
#
# Track frame offsets: 
#        150
#        22832
#        37975
#
# Disc length: 806 seconds
#
# Revision: 3
# Processed by: cddbd v1.5.2PL0 Copyright (c) Steve Scherf et al.
# Submitted via: ExactAudioCopy v1.0b3
#
DISCID=14032403
DTITLE=BoA - KEY OF HEART／DOTCH
DYEAR=2006
DGENRE=J-Pop
TTITLE0=KEY OF HEART
TTITLE1=DOTCH
TTITLE2=KEY OF HEART (English Ver.)
EXTD=YEAR: 2006
EXTT0=
EXTT1=
EXTT2=
PLAYORDER=
